<svg id="facebook-logo" xmlns="http://www.w3.org/2000/svg" viewBox="0 0 29.246 30.708">
  <defs>
    <style>
      .cls-1 {
        fill: #fff;
      }
    </style>
  </defs>
  <path id="Facebook__x28_alt_x29_" class="cls-1" d="M29.246,5.118A5.183,5.183,0,0,0,24.372,0H4.874A5.183,5.183,0,0,0,0,5.118V25.59a5.183,5.183,0,0,0,4.875,5.118h9.748v-11.6H11.049V13.989h3.575V12c0-3.439,2.459-6.536,5.484-6.536h3.94v5.118h-3.94c-.431,0-.934.55-.934,1.373v2.039h4.874v5.118H19.172v11.6h5.2a5.183,5.183,0,0,0,4.874-5.118Z" transform="translate(0 0)"/>
</svg>
