<svg id="linked-in-square-button" xmlns="http://www.w3.org/2000/svg" viewBox="0 0 29.385 30.854">
  <defs>
    <style>
      .cls-1 {
        fill: #fff;
      }
    </style>
  </defs>
  <path id="LinkedIn__x28_alt_x29__3_" class="cls-1" d="M27.21,0H2.177A2.2,2.2,0,0,0,0,2.212V28.648a2.194,2.194,0,0,0,2.177,2.206H27.209a2.192,2.192,0,0,0,2.176-2.206V2.212A2.195,2.195,0,0,0,27.21,0ZM8.911,25.826H4.473V11.9H8.911V25.826ZM6.689,10H6.659A2.349,2.349,0,0,1,4.206,7.59,2.361,2.361,0,0,1,6.717,5.181,2.351,2.351,0,0,1,9.2,7.59,2.362,2.362,0,0,1,6.689,10ZM24.912,25.826h-4.43V18.377c0-1.872-.651-3.159-2.258-3.159a2.424,2.424,0,0,0-2.271,1.707,3.224,3.224,0,0,0-.147,1.122v7.778H11.366s.056-12.623,0-13.927h4.441v1.975a4.367,4.367,0,0,1,4-2.3c2.924,0,5.11,1.991,5.11,6.27v7.986ZM15.779,13.919a.087.087,0,0,1,.026-.044v.044Z" transform="translate(0)"/>
</svg>
