<svg id="twitter-logo-on-black-background" xmlns="http://www.w3.org/2000/svg" viewBox="0 0 29.246 30.708">
  <defs>
    <style>
      .cls-1 {
        fill: #fff;
      }
    </style>
  </defs>
  <g id="post-twitter">
    <path id="Path_1" data-name="Path 1" class="cls-1" d="M26.321,0H2.925A3.009,3.009,0,0,0,0,3.071V27.638a3.009,3.009,0,0,0,2.925,3.071h23.4a3.009,3.009,0,0,0,2.925-3.071V3.071A3.009,3.009,0,0,0,26.321,0ZM22.958,11.209c-.146,7.063-4.387,11.976-10.821,12.283a10.276,10.276,0,0,1-6.288-1.843,7.5,7.5,0,0,0,5.7-1.689A3.987,3.987,0,0,1,7.9,17.043a5.62,5.62,0,0,0,1.609,0A4.144,4.144,0,0,1,6.434,12.9a2.843,2.843,0,0,0,1.609.461c-1.316-.768-2.193-3.685-1.17-5.528a11.424,11.424,0,0,0,8.043,4.3c-1.024-4.3,4.533-6.6,6.727-3.685a9.548,9.548,0,0,0,2.486-.921,4.332,4.332,0,0,1-1.609,2.3,8.08,8.08,0,0,0,2.047-.614A4.054,4.054,0,0,1,22.958,11.209Z"/>
  </g>
</svg>
